<svg xmlns="http://www.w3.org/2000/svg" viewBox="0 0 464 68" width="464" height="68" shape-rendering="crispEdges">
  <!-- Title: Gabriel Couto -->
  <g transform="translate(52, 6)" fill="#ffffff">
    <rect x="6" y="0" width="6" height="6"/>
    <rect x="12" y="0" width="6" height="6"/>
    <rect x="18" y="0" width="6" height="6"/>
    <rect x="0" y="6" width="6" height="6"/>
    <rect x="0" y="12" width="6" height="6"/>
    <rect x="12" y="12" width="6" height="6"/>
    <rect x="18" y="12" width="6" height="6"/>
    <rect x="24" y="12" width="6" height="6"/>
    <rect x="0" y="18" width="6" height="6"/>
    <rect x="24" y="18" width="6" height="6"/>
    <rect x="6" y="24" width="6" height="6"/>
    <rect x="12" y="24" width="6" height="6"/>
    <rect x="18" y="24" width="6" height="6"/>
    <rect x="42" y="6" width="6" height="6"/>
    <rect x="48" y="6" width="6" height="6"/>
    <rect x="36" y="12" width="6" height="6"/>
    <rect x="54" y="12" width="6" height="6"/>
    <rect x="36" y="18" width="6" height="6"/>
    <rect x="54" y="18" width="6" height="6"/>
    <rect x="42" y="24" width="6" height="6"/>
    <rect x="48" y="24" width="6" height="6"/>
    <rect x="54" y="24" width="6" height="6"/>
    <rect x="66" y="0" width="6" height="6"/>
    <rect x="66" y="6" width="6" height="6"/>
    <rect x="66" y="12" width="6" height="6"/>
    <rect x="72" y="12" width="6" height="6"/>
    <rect x="78" y="12" width="6" height="6"/>
    <rect x="66" y="18" width="6" height="6"/>
    <rect x="84" y="18" width="6" height="6"/>
    <rect x="66" y="24" width="6" height="6"/>
    <rect x="72" y="24" width="6" height="6"/>
    <rect x="78" y="24" width="6" height="6"/>
    <rect x="102" y="6" width="6" height="6"/>
    <rect x="108" y="6" width="6" height="6"/>
    <rect x="96" y="12" width="6" height="6"/>
    <rect x="96" y="18" width="6" height="6"/>
    <rect x="96" y="24" width="6" height="6"/>
    <rect x="126" y="0" width="6" height="6"/>
    <rect x="126" y="12" width="6" height="6"/>
    <rect x="126" y="18" width="6" height="6"/>
    <rect x="126" y="24" width="6" height="6"/>
    <rect x="150" y="6" width="6" height="6"/>
    <rect x="156" y="6" width="6" height="6"/>
    <rect x="144" y="12" width="6" height="6"/>
    <rect x="150" y="12" width="6" height="6"/>
    <rect x="156" y="12" width="6" height="6"/>
    <rect x="162" y="12" width="6" height="6"/>
    <rect x="144" y="18" width="6" height="6"/>
    <rect x="150" y="24" width="6" height="6"/>
    <rect x="156" y="24" width="6" height="6"/>
    <rect x="180" y="0" width="6" height="6"/>
    <rect x="180" y="6" width="6" height="6"/>
    <rect x="180" y="12" width="6" height="6"/>
    <rect x="180" y="18" width="6" height="6"/>
    <rect x="180" y="24" width="6" height="6"/>
    <rect x="222" y="0" width="6" height="6"/>
    <rect x="228" y="0" width="6" height="6"/>
    <rect x="234" y="0" width="6" height="6"/>
    <rect x="240" y="0" width="6" height="6"/>
    <rect x="216" y="6" width="6" height="6"/>
    <rect x="216" y="12" width="6" height="6"/>
    <rect x="216" y="18" width="6" height="6"/>
    <rect x="222" y="24" width="6" height="6"/>
    <rect x="228" y="24" width="6" height="6"/>
    <rect x="234" y="24" width="6" height="6"/>
    <rect x="240" y="24" width="6" height="6"/>
    <rect x="258" y="6" width="6" height="6"/>
    <rect x="264" y="6" width="6" height="6"/>
    <rect x="252" y="12" width="6" height="6"/>
    <rect x="270" y="12" width="6" height="6"/>
    <rect x="252" y="18" width="6" height="6"/>
    <rect x="270" y="18" width="6" height="6"/>
    <rect x="258" y="24" width="6" height="6"/>
    <rect x="264" y="24" width="6" height="6"/>
    <rect x="282" y="6" width="6" height="6"/>
    <rect x="300" y="6" width="6" height="6"/>
    <rect x="282" y="12" width="6" height="6"/>
    <rect x="300" y="12" width="6" height="6"/>
    <rect x="282" y="18" width="6" height="6"/>
    <rect x="300" y="18" width="6" height="6"/>
    <rect x="288" y="24" width="6" height="6"/>
    <rect x="294" y="24" width="6" height="6"/>
    <rect x="300" y="24" width="6" height="6"/>
    <rect x="318" y="0" width="6" height="6"/>
    <rect x="312" y="6" width="6" height="6"/>
    <rect x="318" y="6" width="6" height="6"/>
    <rect x="324" y="6" width="6" height="6"/>
    <rect x="318" y="12" width="6" height="6"/>
    <rect x="318" y="18" width="6" height="6"/>
    <rect x="324" y="24" width="6" height="6"/>
    <rect x="342" y="6" width="6" height="6"/>
    <rect x="348" y="6" width="6" height="6"/>
    <rect x="336" y="12" width="6" height="6"/>
    <rect x="354" y="12" width="6" height="6"/>
    <rect x="336" y="18" width="6" height="6"/>
    <rect x="354" y="18" width="6" height="6"/>
    <rect x="342" y="24" width="6" height="6"/>
    <rect x="348" y="24" width="6" height="6"/>
  </g>

  <!-- Subtitle: cotoo.dev -->
  <g transform="translate(126, 42)" fill="#ffffff">
    <rect x="4" y="4" width="4" height="4"/>
    <rect x="8" y="4" width="4" height="4"/>
    <rect x="12" y="4" width="4" height="4"/>
    <rect x="0" y="8" width="4" height="4"/>
    <rect x="0" y="12" width="4" height="4"/>
    <rect x="4" y="16" width="4" height="4"/>
    <rect x="8" y="16" width="4" height="4"/>
    <rect x="12" y="16" width="4" height="4"/>
    <rect x="28" y="4" width="4" height="4"/>
    <rect x="32" y="4" width="4" height="4"/>
    <rect x="36" y="4" width="4" height="4"/>
    <rect x="24" y="8" width="4" height="4"/>
    <rect x="40" y="8" width="4" height="4"/>
    <rect x="24" y="12" width="4" height="4"/>
    <rect x="40" y="12" width="4" height="4"/>
    <rect x="28" y="16" width="4" height="4"/>
    <rect x="32" y="16" width="4" height="4"/>
    <rect x="36" y="16" width="4" height="4"/>
    <rect x="56" y="0" width="4" height="4"/>
    <rect x="52" y="4" width="4" height="4"/>
    <rect x="56" y="4" width="4" height="4"/>
    <rect x="60" y="4" width="4" height="4"/>
    <rect x="56" y="8" width="4" height="4"/>
    <rect x="56" y="12" width="4" height="4"/>
    <rect x="60" y="16" width="4" height="4"/>
    <rect x="76" y="4" width="4" height="4"/>
    <rect x="80" y="4" width="4" height="4"/>
    <rect x="84" y="4" width="4" height="4"/>
    <rect x="72" y="8" width="4" height="4"/>
    <rect x="88" y="8" width="4" height="4"/>
    <rect x="72" y="12" width="4" height="4"/>
    <rect x="88" y="12" width="4" height="4"/>
    <rect x="76" y="16" width="4" height="4"/>
    <rect x="80" y="16" width="4" height="4"/>
    <rect x="84" y="16" width="4" height="4"/>
    <rect x="100" y="4" width="4" height="4"/>
    <rect x="104" y="4" width="4" height="4"/>
    <rect x="108" y="4" width="4" height="4"/>
    <rect x="96" y="8" width="4" height="4"/>
    <rect x="112" y="8" width="4" height="4"/>
    <rect x="96" y="12" width="4" height="4"/>
    <rect x="112" y="12" width="4" height="4"/>
    <rect x="100" y="16" width="4" height="4"/>
    <rect x="104" y="16" width="4" height="4"/>
    <rect x="108" y="16" width="4" height="4"/>
    <rect x="124" y="16" width="4" height="4"/>
    <rect x="160" y="0" width="4" height="4"/>
    <rect x="160" y="4" width="4" height="4"/>
    <rect x="148" y="8" width="4" height="4"/>
    <rect x="152" y="8" width="4" height="4"/>
    <rect x="156" y="8" width="4" height="4"/>
    <rect x="160" y="8" width="4" height="4"/>
    <rect x="144" y="12" width="4" height="4"/>
    <rect x="160" y="12" width="4" height="4"/>
    <rect x="148" y="16" width="4" height="4"/>
    <rect x="152" y="16" width="4" height="4"/>
    <rect x="156" y="16" width="4" height="4"/>
    <rect x="160" y="16" width="4" height="4"/>
    <rect x="172" y="4" width="4" height="4"/>
    <rect x="176" y="4" width="4" height="4"/>
    <rect x="180" y="4" width="4" height="4"/>
    <rect x="168" y="8" width="4" height="4"/>
    <rect x="172" y="8" width="4" height="4"/>
    <rect x="176" y="8" width="4" height="4"/>
    <rect x="180" y="8" width="4" height="4"/>
    <rect x="184" y="8" width="4" height="4"/>
    <rect x="168" y="12" width="4" height="4"/>
    <rect x="172" y="16" width="4" height="4"/>
    <rect x="176" y="16" width="4" height="4"/>
    <rect x="180" y="16" width="4" height="4"/>
    <rect x="192" y="4" width="4" height="4"/>
    <rect x="208" y="4" width="4" height="4"/>
    <rect x="192" y="8" width="4" height="4"/>
    <rect x="208" y="8" width="4" height="4"/>
    <rect x="196" y="12" width="4" height="4"/>
    <rect x="204" y="12" width="4" height="4"/>
    <rect x="200" y="16" width="4" height="4"/>
  </g>
</svg>
